<svg xmlns="http://www.w3.org/2000/svg" xmlns:xlink="http://www.w3.org/1999/xlink" width="500" zoomAndPan="magnify" viewBox="0 0 375 374.999991" height="500" preserveAspectRatio="xMidYMid meet" version="1.0"><defs><g/><clipPath id="766a265f57"><path d="M 73.433594 66.71875 L 296.933594 66.71875 L 296.933594 290.21875 L 73.433594 290.21875 Z M 73.433594 66.71875 " clip-rule="nonzero"/></clipPath><clipPath id="6ccc8610e6"><path d="M 122 132 L 256 132 L 256 250.734375 L 122 250.734375 Z M 122 132 " clip-rule="nonzero"/></clipPath><clipPath id="0ecfc6d7b0"><path d="M 123 136 L 255 136 L 255 250.734375 L 123 250.734375 Z M 123 136 " clip-rule="nonzero"/></clipPath><clipPath id="38c4df9139"><path d="M 122 148 L 233 148 L 233 250.734375 L 122 250.734375 Z M 122 148 " clip-rule="nonzero"/></clipPath><clipPath id="5b9e9a8186"><path d="M 120 131.484375 L 256.671875 131.484375 L 256.671875 250.734375 L 120 250.734375 Z M 120 131.484375 " clip-rule="nonzero"/></clipPath><clipPath id="66eddd01cc"><path d="M 256 262 L 305 262 L 305 299.132812 L 256 299.132812 Z M 256 262 " clip-rule="nonzero"/></clipPath><clipPath id="866903bf9d"><path d="M 105 251.132812 L 269 251.132812 L 269 289 L 105 289 Z M 105 251.132812 " clip-rule="nonzero"/></clipPath><clipPath id="5f129e0ffe"><path d="M 70 262 L 119 262 L 119 299.132812 L 70 299.132812 Z M 70 262 " clip-rule="nonzero"/></clipPath></defs><g clip-path="url(#766a265f57)"><path fill="#2e0a08" d="M 290.019531 208.265625 C 287.1875 217.910156 282.859375 227.0625 277.492188 235.492188 C 273.058594 242.351562 268.019531 248.796875 262.355469 254.664062 C 261.625 255.464844 260.808594 256.179688 260.027344 256.9375 C 259.238281 257.679688 258.46875 258.445312 257.664062 259.171875 L 255.207031 261.304688 L 253.980469 262.375 L 252.707031 263.386719 L 250.164062 265.417969 C 249.304688 266.074219 248.414062 266.699219 247.542969 267.34375 C 245.816406 268.664062 243.984375 269.824219 242.1875 271.042969 C 241.929688 271.21875 241.65625 271.402344 241.371094 271.59375 C 241.078125 271.769531 240.777344 271.949219 240.457031 272.140625 C 239.824219 272.519531 239.144531 272.929688 238.417969 273.363281 C 236.980469 274.261719 235.285156 275.113281 233.453125 276.085938 C 232.992188 276.324219 232.527344 276.582031 232.039062 276.816406 C 231.550781 277.046875 231.050781 277.277344 230.542969 277.511719 C 229.523438 277.984375 228.46875 278.472656 227.378906 278.976562 C 225.144531 279.847656 222.816406 280.894531 220.277344 281.710938 C 210.253906 285.34375 197.742188 287.589844 185.183594 287.644531 C 172.628906 287.589844 160.117188 285.34375 150.09375 281.710938 C 147.550781 280.894531 145.226562 279.847656 142.992188 278.976562 C 141.902344 278.472656 140.847656 277.984375 139.828125 277.511719 C 139.320312 277.277344 138.820312 277.046875 138.328125 276.816406 C 137.839844 276.585938 137.378906 276.324219 136.917969 276.085938 C 135.085938 275.113281 133.386719 274.261719 131.953125 273.363281 C 131.226562 272.929688 130.546875 272.519531 129.910156 272.140625 C 129.59375 271.953125 129.289062 271.769531 128.996094 271.59375 C 128.714844 271.402344 128.441406 271.21875 128.183594 271.046875 C 121.363281 266.574219 114.953125 261.496094 109.128906 255.792969 C 102.984375 249.65625 97.613281 242.78125 92.878906 235.492188 C 87.507812 227.0625 83.183594 217.910156 80.347656 208.265625 C 77.398438 198.648438 76.035156 188.558594 75.945312 178.46875 C 76.035156 168.375 77.398438 158.285156 80.347656 148.671875 C 83.183594 139.023438 87.507812 129.871094 92.875 121.445312 C 97.308594 114.585938 102.347656 108.136719 108.011719 102.273438 C 108.746094 101.472656 109.5625 100.753906 110.339844 100 C 111.128906 99.257812 111.898438 98.488281 112.707031 97.765625 L 115.160156 95.628906 L 116.386719 94.5625 L 117.660156 93.550781 L 120.203125 91.519531 C 121.066406 90.859375 121.953125 90.238281 122.828125 89.59375 C 124.550781 88.273438 126.386719 87.113281 128.183594 85.890625 C 128.441406 85.714844 128.710938 85.535156 128.996094 85.34375 C 129.289062 85.167969 129.59375 84.984375 129.910156 84.792969 C 130.542969 84.414062 131.226562 84.007812 131.953125 83.574219 C 133.386719 82.671875 135.085938 81.824219 136.917969 80.847656 C 137.378906 80.613281 137.839844 80.351562 138.328125 80.117188 C 138.820312 79.890625 139.316406 79.660156 139.828125 79.421875 C 140.847656 78.953125 141.902344 78.464844 142.992188 77.960938 C 145.222656 77.085938 147.550781 76.039062 150.089844 75.226562 C 160.117188 71.589844 172.628906 69.34375 185.183594 69.292969 C 197.738281 69.34375 210.253906 71.589844 220.277344 75.226562 C 222.816406 76.039062 225.144531 77.085938 227.378906 77.960938 C 228.46875 78.464844 229.523438 78.953125 230.539062 79.421875 C 231.050781 79.660156 231.550781 79.890625 232.039062 80.117188 C 232.527344 80.351562 232.988281 80.613281 233.449219 80.847656 C 235.28125 81.824219 236.980469 82.671875 238.414062 83.574219 C 239.140625 84.007812 239.824219 84.414062 240.457031 84.792969 C 240.773438 84.984375 241.078125 85.167969 241.371094 85.34375 C 241.65625 85.535156 241.925781 85.714844 242.1875 85.890625 C 249.007812 90.359375 255.414062 95.4375 261.242188 101.140625 C 267.382812 107.277344 272.753906 114.152344 277.492188 121.441406 C 282.859375 129.871094 287.1875 139.023438 290.019531 148.671875 C 292.972656 158.285156 294.335938 168.375 294.421875 178.46875 C 294.335938 188.558594 292.972656 198.648438 290.019531 208.265625 Z M 296.933594 178.394531 L 296.929688 178.382812 C 296.839844 168.082031 295.453125 157.769531 292.453125 147.941406 C 289.566406 138.078125 285.144531 128.71875 279.628906 120.121094 L 276.980469 116.136719 C 276.980469 116.136719 276.214844 115.066406 275.066406 113.460938 C 273.960938 111.820312 272.265625 109.800781 270.652344 107.722656 C 268.910156 105.75 267.238281 103.710938 265.832031 102.324219 C 264.46875 100.898438 263.558594 99.949219 263.558594 99.949219 C 263.558594 99.949219 263.328125 99.714844 262.914062 99.316406 C 262.5 98.914062 261.910156 98.34375 261.199219 97.660156 C 259.816406 96.25 257.804688 94.550781 255.835938 92.804688 C 254.824219 91.964844 253.78125 91.160156 252.820312 90.386719 C 252.339844 90.003906 251.871094 89.632812 251.429688 89.28125 C 250.972656 88.949219 250.539062 88.636719 250.136719 88.347656 C 248.535156 87.191406 247.46875 86.425781 247.46875 86.425781 C 247.46875 86.425781 247.238281 86.234375 246.863281 85.992188 C 246.488281 85.742188 245.992188 85.410156 245.496094 85.078125 C 244.503906 84.414062 243.511719 83.75 243.511719 83.75 C 243.246094 83.570312 242.96875 83.382812 242.679688 83.1875 C 242.378906 83.003906 242.070312 82.816406 241.746094 82.621094 C 241.097656 82.230469 240.398438 81.8125 239.660156 81.367188 C 238.191406 80.445312 236.457031 79.570312 234.582031 78.574219 C 234.109375 78.328125 233.636719 78.0625 233.136719 77.824219 C 232.636719 77.589844 232.125 77.351562 231.605469 77.109375 C 230.5625 76.625 229.484375 76.125 228.367188 75.609375 C 226.085938 74.710938 223.703125 73.640625 221.101562 72.804688 C 210.84375 69.078125 198.03125 66.769531 185.183594 66.71875 C 172.335938 66.769531 159.527344 69.078125 149.265625 72.804688 C 146.667969 73.640625 144.285156 74.710938 142 75.609375 C 140.886719 76.125 139.804688 76.625 138.761719 77.109375 C 138.242188 77.351562 137.730469 77.589844 137.230469 77.824219 C 136.730469 78.0625 136.257812 78.328125 135.785156 78.574219 C 133.910156 79.570312 132.175781 80.445312 130.710938 81.367188 C 129.96875 81.8125 129.273438 82.234375 128.621094 82.621094 C 128.300781 82.816406 127.988281 83.007812 127.691406 83.1875 C 127.398438 83.382812 127.121094 83.570312 126.855469 83.75 C 126.855469 83.75 125.863281 84.414062 124.871094 85.078125 C 124.375 85.410156 123.878906 85.742188 123.507812 85.992188 C 123.132812 86.234375 122.898438 86.425781 122.898438 86.425781 C 122.898438 86.425781 121.832031 87.191406 120.230469 88.347656 C 119.832031 88.636719 119.398438 88.949219 118.941406 89.28125 C 118.496094 89.632812 118.03125 90.003906 117.546875 90.386719 C 116.585938 91.160156 115.546875 91.964844 114.535156 92.804688 C 112.5625 94.550781 110.554688 96.25 109.167969 97.660156 C 108.460938 98.34375 107.871094 98.914062 107.457031 99.316406 C 107.039062 99.714844 106.8125 99.949219 106.8125 99.949219 C 106.8125 99.949219 105.902344 100.898438 104.535156 102.324219 C 103.128906 103.710938 101.460938 105.75 99.71875 107.722656 C 98.101562 109.800781 96.40625 111.820312 95.304688 113.460938 C 94.152344 115.066406 93.386719 116.140625 93.386719 116.140625 L 90.738281 120.121094 C 85.226562 128.71875 80.804688 138.078125 77.917969 147.941406 C 74.914062 157.769531 73.527344 168.082031 73.4375 178.386719 L 73.4375 178.394531 L 73.433594 178.46875 L 73.4375 178.542969 L 73.4375 178.550781 C 73.527344 188.855469 74.914062 199.164062 77.917969 208.996094 C 80.804688 218.855469 85.226562 228.21875 90.738281 236.8125 L 93.386719 240.796875 C 93.386719 240.796875 94.15625 241.867188 95.304688 243.476562 C 96.410156 245.113281 98.101562 247.136719 99.71875 249.214844 C 101.460938 251.1875 103.128906 253.222656 104.535156 254.613281 C 105.902344 256.035156 106.8125 256.988281 106.8125 256.988281 C 106.8125 256.988281 107.039062 257.222656 107.457031 257.621094 C 107.871094 258.019531 108.460938 258.59375 109.167969 259.277344 C 110.554688 260.6875 112.5625 262.386719 114.535156 264.128906 C 115.546875 264.96875 116.585938 265.773438 117.546875 266.546875 C 118.03125 266.933594 118.496094 267.304688 118.941406 267.65625 C 119.398438 267.984375 119.832031 268.296875 120.230469 268.585938 C 121.832031 269.742188 122.898438 270.511719 122.898438 270.511719 C 122.898438 270.511719 123.132812 270.699219 123.507812 270.941406 C 123.878906 271.191406 124.375 271.523438 124.871094 271.855469 C 125.863281 272.523438 126.859375 273.1875 126.859375 273.1875 C 127.121094 273.363281 127.398438 273.554688 127.691406 273.746094 C 127.988281 273.929688 128.300781 274.117188 128.625 274.3125 C 129.273438 274.703125 129.96875 275.121094 130.710938 275.566406 C 132.175781 276.492188 133.914062 277.363281 135.789062 278.363281 C 136.257812 278.605469 136.734375 278.875 137.230469 279.113281 C 137.730469 279.347656 138.242188 279.585938 138.761719 279.828125 C 139.804688 280.308594 140.886719 280.808594 142 281.328125 C 144.285156 282.226562 146.667969 283.296875 149.265625 284.132812 C 159.527344 287.859375 172.335938 290.167969 185.183594 290.21875 C 198.03125 290.167969 210.84375 287.859375 221.105469 284.132812 C 223.703125 283.296875 226.085938 282.222656 228.371094 281.324219 C 229.484375 280.808594 230.5625 280.308594 231.605469 279.828125 C 232.125 279.585938 232.636719 279.347656 233.140625 279.113281 C 233.636719 278.875 234.109375 278.605469 234.582031 278.363281 C 236.457031 277.363281 238.191406 276.492188 239.660156 275.566406 C 240.402344 275.121094 241.097656 274.703125 241.746094 274.3125 C 242.070312 274.117188 242.382812 273.929688 242.679688 273.746094 C 242.96875 273.550781 243.246094 273.363281 243.511719 273.1875 C 243.511719 273.1875 244.503906 272.523438 245.496094 271.855469 C 245.992188 271.523438 246.488281 271.191406 246.863281 270.941406 C 247.238281 270.699219 247.46875 270.511719 247.46875 270.511719 C 247.46875 270.511719 248.535156 269.742188 250.136719 268.585938 C 250.539062 268.296875 250.972656 267.984375 251.429688 267.65625 C 251.871094 267.304688 252.339844 266.933594 252.820312 266.546875 C 253.78125 265.773438 254.824219 264.96875 255.835938 264.128906 C 257.804688 262.386719 259.816406 260.6875 261.199219 259.277344 C 261.910156 258.59375 262.5 258.019531 262.914062 257.621094 C 263.328125 257.222656 263.558594 256.988281 263.558594 256.988281 C 263.558594 256.988281 264.46875 256.035156 265.832031 254.613281 C 267.238281 253.222656 268.910156 251.1875 270.652344 249.214844 C 272.265625 247.136719 273.960938 245.113281 275.066406 243.476562 C 276.214844 241.867188 276.980469 240.796875 276.980469 240.796875 L 279.628906 236.8125 C 285.144531 228.21875 289.566406 218.855469 292.453125 208.996094 C 295.453125 199.164062 296.839844 188.855469 296.929688 178.550781 L 296.933594 178.542969 L 296.933594 178.394531 " fill-opacity="1" fill-rule="nonzero"/></g><g clip-path="url(#6ccc8610e6)"><path fill="#ffffff" d="M 255.335938 241.425781 L 254.859375 250.722656 L 221.113281 250.722656 L 221.710938 241.425781 Z M 247.589844 200.683594 C 247.589844 200.683594 248.449219 185.503906 235.71875 169.777344 C 238.636719 155.246094 234.722656 135.777344 231.011719 132.914062 C 223.996094 133.324219 209.347656 138.472656 201.210938 151.421875 C 192.972656 148.480469 181.34375 147.703125 169.617188 150.640625 C 169.617188 150.640625 155.738281 136.019531 139.460938 132.914062 C 131.566406 138.691406 134.039062 166.839844 133.957031 170.378906 C 128.453125 180.21875 107.632812 210.289062 141.855469 231.378906 C 137.308594 243.105469 135.5 250.558594 135.5 250.558594 L 219.878906 250.722656 C 219.878906 250.722656 221.4375 234.230469 223.113281 226.070312 C 224.789062 217.910156 226.347656 204.222656 229.929688 202.621094 C 233.511719 201.015625 236.3125 204.820312 236.3125 204.820312 C 236.3125 204.820312 240.359375 194.859375 243.523438 203.742188 C 242.613281 200.378906 247.589844 200.683594 247.589844 200.683594 Z M 247.589844 200.683594 " fill-opacity="1" fill-rule="nonzero"/></g><path fill="#efb07d" d="M 225.300781 213.34375 C 227.933594 200.019531 233.320312 201.339844 236.3125 204.820312 C 236.789062 200.738281 241.097656 199.417969 243.609375 202.660156 C 253.304688 193.058594 254.859375 221.546875 254.859375 221.546875 L 254.859375 239.984375 C 254.859375 239.984375 252.6875 247.066406 237.808594 247.066406 C 224.824219 247.066406 221.113281 241.304688 221.113281 241.304688 C 221.113281 241.304688 222.667969 226.664062 225.300781 213.34375 Z M 170.035156 150.8125 C 167.164062 146.503906 148.675781 131.484375 139.703125 132.929688 C 129.53125 144.691406 134.4375 170.378906 134.4375 170.378906 C 134.4375 170.378906 126.035156 181.644531 125.035156 192.53125 C 125.359375 200.5625 147.125 214.625 172.011719 193.734375 C 195.660156 173.878906 176.617188 149.613281 176.617188 149.613281 C 176.617188 149.613281 173.386719 149.839844 170.035156 150.8125 Z M 228.980469 139.890625 L 221.113281 155.894531 C 221.113281 155.894531 228.140625 161.734375 229.992188 166.773438 C 231.84375 161.972656 232.335938 149.730469 228.980469 139.890625 Z M 228.980469 139.890625 " fill-opacity="1" fill-rule="nonzero"/><g clip-path="url(#0ecfc6d7b0)"><path fill="#ef5454" d="M 254.859375 250.722656 C 254.859375 250.722656 254.859375 250.722656 240.320312 250.722656 C 251.628906 249.695312 253.007812 219.105469 253.007812 219.105469 Z M 148.160156 155.894531 C 148.160156 155.894531 141.933594 142.929688 140.898438 139.890625 C 138.265625 146.292969 137.832031 162.292969 139.882812 166.773438 C 143.921875 161.84375 148.160156 155.894531 148.160156 155.894531 Z M 219.941406 250.722656 C 221.273438 242.355469 223.101562 230.847656 224.574219 221.570312 C 224.566406 221.570312 224.558594 221.574219 224.550781 221.578125 L 226.058594 204.917969 C 225.960938 205.035156 225.839844 205.199219 225.691406 205.414062 C 224.550781 207.066406 221.96875 211.828125 219.882812 223.144531 C 211.339844 225.695312 200.085938 227.449219 185.269531 227.550781 C 127.828125 227.15625 123.917969 201.890625 123.917969 201.890625 C 123.917969 201.890625 122.878906 205.300781 125.085938 210.863281 C 124.441406 210.320312 123.953125 209.886719 123.683594 209.621094 C 125.375 222.382812 141.9375 232.226562 141.9375 232.226562 L 135.5 250.722656 C 135.5 250.722656 142.253906 250.722656 149.59375 250.722656 C 154.0625 236.09375 159.460938 236.480469 159.460938 236.480469 C 170.707031 238.949219 181.503906 239.613281 185.269531 239.613281 C 189.039062 239.613281 199.835938 238.949219 211.082031 236.480469 C 211.082031 236.480469 213.84375 236.285156 217.050781 241.519531 C 215.882812 248.972656 215.507812 250.714844 215.507812 250.714844 Z M 200.902344 151.421875 L 207.527344 153.332031 C 207.527344 153.332031 210 144.40625 220.808594 136.867188 C 213.269531 138.929688 205.132812 144.394531 200.902344 151.421875 Z M 149.207031 136.867188 C 160.019531 144.40625 162.492188 153.332031 162.492188 153.332031 L 169.113281 151.421875 C 164.886719 144.394531 156.746094 138.929688 149.207031 136.867188 Z M 189.640625 207.183594 C 189.640625 207.183594 184.21875 208.433594 179.589844 207.046875 C 180.226562 212.382812 188.046875 212.863281 189.640625 207.183594 Z M 189.640625 207.183594 " fill-opacity="0.298" fill-rule="nonzero"/></g><g clip-path="url(#38c4df9139)"><path fill="#ffffff" d="M 135.265625 148.460938 C 135.265625 148.460938 134.054688 165.183594 139.75 173.179688 C 133.71875 177.578125 123.378906 191.867188 123.671875 203.5 C 121.394531 195.941406 124.660156 183.015625 133.675781 171.457031 C 132.761719 164.613281 133.675781 155.203125 135.265625 148.460938 Z M 223.347656 234.914062 C 226.578125 210.878906 232.097656 203.519531 232.097656 203.519531 C 223.015625 201.0625 222.511719 224.222656 223.347656 234.914062 Z M 130.148438 219.105469 C 130.148438 219.105469 141.257812 229.304688 148.078125 230.382812 C 145.328125 233.863281 139.75 250.722656 139.75 250.722656 L 134.796875 250.722656 L 141.257812 231.824219 C 141.257812 231.824219 130.402344 226.433594 130.148438 219.105469 Z M 130.148438 219.105469 " fill-opacity="1" fill-rule="nonzero"/></g><g clip-path="url(#5b9e9a8186)"><path fill="#2b0806" d="M 256.652344 250.722656 C 255.128906 250.722656 253.125 250.722656 253.125 250.722656 C 253.09375 244.875 254.121094 214.664062 251.0625 204.484375 C 249.445312 199.097656 244.402344 201.671875 243.71875 206.160156 C 243.261719 203.90625 242.742188 201.484375 240.449219 201.726562 C 237.613281 202.019531 236.453125 207.042969 236.453125 207.042969 C 236.453125 207.042969 234.179688 203.382812 232.097656 203.519531 C 228.808594 203.738281 226.644531 208.582031 225.066406 218.898438 C 224.179688 224.695312 221.898438 250.722656 221.898438 250.722656 L 218.964844 250.722656 C 218.964844 250.722656 220.578125 232.78125 221.097656 228.894531 L 221.109375 228.785156 L 221.527344 225.753906 C 222.472656 219.09375 223.527344 213.054688 224.539062 209.234375 C 227.183594 199.289062 233.175781 198.242188 235.878906 203.019531 C 237.265625 197.898438 243.28125 197.042969 243.914062 201.550781 C 244.113281 200.609375 245.050781 199.476562 246.367188 199.003906 C 245.84375 191.324219 242.492188 182.058594 234.414062 170.976562 C 236.179688 167.253906 238.0625 149.75 230.648438 134.371094 C 226.898438 134.371094 214.335938 137.449219 202.207031 150.671875 C 204.269531 151.386719 206.207031 152.261719 207.832031 153.332031 C 207.328125 153.351562 196.25 150.199219 185.175781 150.199219 C 174.097656 150.199219 163.023438 153.351562 162.519531 153.332031 C 164.144531 152.261719 166.082031 151.386719 168.140625 150.671875 C 156.015625 137.449219 143.453125 134.371094 139.703125 134.371094 C 132.285156 149.75 134.171875 167.253906 135.9375 170.976562 C 106.675781 211.128906 139.40625 227.398438 144.070312 231.042969 C 141.4375 236.445312 136.589844 250.722656 136.589844 250.722656 L 133.339844 250.722656 C 133.339844 250.722656 136.484375 240.773438 140.3125 231.890625 C 111.101562 214.664062 120.554688 186.457031 132.523438 171.457031 C 128.933594 150.214844 136.351562 131.96875 139.222656 131.484375 C 158.253906 135.136719 167.976562 146.507812 170.523438 149.925781 C 173.941406 148.964844 179.554688 147.5625 185.175781 147.558594 C 190.785156 147.558594 196.402344 148.960938 199.828125 149.925781 C 202.371094 146.507812 212.097656 135.136719 231.125 131.484375 C 234 131.96875 241.417969 150.214844 237.828125 171.457031 C 243.507812 178.574219 248.613281 188.667969 249.296875 199.148438 C 250.28125 199.585938 251.320312 200.441406 252.339844 201.902344 C 254.242188 204.628906 254.53125 208.148438 255.429688 215.234375 C 256.257812 221.777344 256.652344 246.855469 256.652344 250.722656 Z M 228.980469 139.890625 C 228.980469 139.890625 223.523438 147.636719 219.511719 155.886719 C 222.203125 157.652344 227.734375 163.414062 229.992188 166.773438 C 231.058594 164.855469 225.53125 156.710938 222.714844 155.132812 C 225.644531 152.011719 228.980469 139.890625 228.980469 139.890625 Z M 140.898438 139.890625 C 140.898438 139.890625 146.355469 147.636719 150.367188 155.886719 C 147.675781 157.652344 142.144531 163.414062 139.882812 166.773438 C 138.820312 164.855469 144.347656 156.710938 147.160156 155.132812 C 144.230469 152.011719 140.898438 139.890625 140.898438 139.890625 Z M 156.121094 178.679688 C 150.03125 180.121094 145.902344 186.21875 144.644531 191.273438 C 144.453125 192.042969 144.867188 192.65625 145.71875 192.867188 C 147.101562 193.214844 149.617188 192.507812 149.988281 191.023438 C 150.472656 189.078125 151.292969 187.316406 152.433594 185.78125 C 153.289062 184.625 154.964844 182.628906 156.542969 182.230469 C 157.8125 181.914062 159.027344 183.996094 159.679688 185.113281 L 159.832031 185.378906 C 160.949219 187.269531 161.855469 189.460938 162.515625 191.894531 C 162.75 192.746094 163.585938 193.082031 164.507812 193.082031 C 164.894531 193.082031 165.296875 193.023438 165.675781 192.917969 C 167.226562 192.496094 168.113281 191.484375 167.832031 190.460938 C 165.394531 181.515625 161.34375 177.441406 156.121094 178.679688 Z M 225.226562 190.460938 C 222.789062 181.515625 218.738281 177.441406 213.515625 178.679688 C 207.421875 180.121094 203.296875 186.21875 202.039062 191.273438 C 201.921875 191.742188 202.03125 192.167969 202.34375 192.46875 C 203.003906 193.105469 204.316406 193.023438 205.242188 192.757812 C 206.394531 192.425781 207.191406 191.777344 207.382812 191.023438 C 207.863281 189.078125 208.6875 187.316406 209.824219 185.78125 C 210.683594 184.625 212.359375 182.628906 213.9375 182.230469 C 215.207031 181.914062 216.421875 183.996094 217.074219 185.117188 L 217.226562 185.378906 C 218.34375 187.269531 219.246094 189.460938 219.910156 191.894531 C 220.058594 192.433594 220.488281 192.824219 221.121094 192.992188 C 221.363281 193.054688 221.628906 193.085938 221.902344 193.085938 C 222.929688 193.085938 224.101562 192.664062 224.75 192.007812 C 225.203125 191.546875 225.371094 190.996094 225.226562 190.460938 Z M 193.769531 193.152344 C 193.121094 193.496094 192.816406 194.609375 193.449219 195.800781 C 193.816406 196.492188 193.421875 197.207031 193.15625 197.570312 C 192.460938 198.523438 191.207031 199.101562 190.246094 198.921875 C 188.585938 198.609375 187.589844 196.65625 186.90625 194.988281 C 186.585938 194.210938 185.914062 193.726562 185.152344 193.726562 C 184.394531 193.726562 183.722656 194.210938 183.402344 194.988281 C 182.839844 196.355469 181.792969 198.90625 180.0625 199.230469 C 179.328125 199.367188 178.410156 199.011719 177.675781 198.304688 C 176.59375 197.210938 176.917969 195.785156 177.035156 195.394531 C 177.046875 195.367188 177.054688 195.335938 177.066406 195.296875 L 177.320312 194.621094 L 177.191406 194.621094 C 177.226562 193.917969 176.945312 193.3125 176.441406 193.109375 C 176.011719 192.933594 175.375 193.066406 174.894531 193.972656 C 174 195.65625 173.953125 197.660156 174.761719 199.332031 C 175.515625 200.882812 176.933594 201.949219 178.652344 202.253906 C 181.117188 202.695312 183.355469 201.648438 185.152344 199.230469 C 186.683594 201.289062 188.53125 202.351562 190.566406 202.351562 C 190.925781 202.351562 191.285156 202.320312 191.652344 202.253906 C 193.371094 201.949219 194.789062 200.882812 195.542969 199.332031 C 196.355469 197.660156 196.304688 195.65625 195.410156 193.972656 C 194.890625 192.996094 194.203125 192.921875 193.769531 193.152344 Z M 193.769531 193.152344 " fill-opacity="1" fill-rule="nonzero"/></g><path fill="#ef5454" d="M 239.859375 217.34375 C 238.964844 216.332031 235.386719 213.597656 233.085938 218.0625 C 230.785156 222.527344 237.066406 226.992188 239.859375 226.992188 C 242.65625 226.992188 248.9375 222.527344 246.636719 218.0625 C 244.335938 213.597656 240.753906 216.332031 239.859375 217.34375 Z M 242.054688 209.820312 C 242.054688 208.457031 241.277344 207.355469 240.320312 207.355469 C 239.359375 207.355469 238.582031 208.457031 238.582031 209.820312 C 238.582031 211.183594 239.359375 212.289062 240.320312 212.289062 C 241.277344 212.289062 242.054688 211.183594 242.054688 209.820312 Z M 247.441406 208.835938 C 246.46875 208.6875 245.492188 209.597656 245.265625 210.867188 C 245.035156 212.136719 245.640625 213.285156 246.613281 213.433594 C 247.585938 213.582031 248.558594 212.671875 248.789062 211.402344 C 249.015625 210.132812 248.414062 208.984375 247.441406 208.835938 Z M 233.40625 213.554688 C 234.390625 213.269531 234.828125 212.011719 234.382812 210.742188 C 233.9375 209.476562 232.78125 208.679688 231.796875 208.964844 C 230.8125 209.253906 230.375 210.511719 230.820312 211.777344 C 231.265625 213.046875 232.421875 213.839844 233.40625 213.554688 Z M 233.40625 213.554688 " fill-opacity="1" fill-rule="nonzero"/><g clip-path="url(#66eddd01cc)"><path fill="#000000" d="M 272.066406 262.214844 L 272.066406 290.972656 L 256.667969 299.125 L 304.988281 299.125 L 294.9375 280.671875 L 304.988281 262.214844 L 272.066406 262.214844 " fill-opacity="1" fill-rule="nonzero"/></g><path fill="#000000" d="M 252.152344 291.285156 L 252.152344 297.925781 L 264.703125 291.285156 Z M 252.152344 291.285156 " fill-opacity="1" fill-rule="nonzero"/><g clip-path="url(#866903bf9d)"><path fill="#000000" d="M 268.894531 251.144531 L 105.722656 251.144531 L 105.722656 288.113281 L 268.894531 288.113281 L 268.894531 251.144531 " fill-opacity="1" fill-rule="nonzero"/></g><g clip-path="url(#5f129e0ffe)"><path fill="#000000" d="M 102.550781 291.285156 L 102.550781 262.214844 L 70.109375 262.222656 L 80.160156 280.671875 L 70.117188 299.132812 L 118.417969 299.117188 L 102.550781 291.285156 " fill-opacity="1" fill-rule="nonzero"/></g><path fill="#000000" d="M 122.984375 297.921875 L 123.035156 291.285156 L 110.238281 291.285156 Z M 122.984375 297.921875 " fill-opacity="1" fill-rule="nonzero"/><g fill="#ffffff" fill-opacity="1"><g transform="translate(121.523426, 279.264739)"><g><path d="M 15.972656 -0.175781 C 16.9375 -0.175781 17.550781 -0.703125 17.550781 -1.625 C 17.550781 -2.0625 17.464844 -2.542969 17.332031 -3.117188 C 16.628906 -5.574219 15.488281 -11.363281 14.304688 -14.960938 C 13.601562 -16.671875 12.546875 -18.734375 11.058594 -18.734375 C 10.046875 -18.734375 8.863281 -17.507812 7.546875 -15.09375 C 6.625 -13.339844 4.429688 -8.90625 2.238281 -3.6875 C 1.402344 -1.625 1.140625 -0.351562 2.765625 -0.351562 C 3.597656 -0.351562 4.167969 -0.703125 4.5625 -1.578125 C 4.957031 -2.371094 5.441406 -3.511719 6.054688 -4.828125 C 6.1875 -5.046875 6.363281 -5.132812 6.582031 -5.132812 C 8.730469 -5.089844 10.835938 -5.351562 12.945312 -5.703125 C 13.207031 -5.746094 13.382812 -5.617188 13.425781 -5.351562 L 13.601562 -4.695312 C 13.863281 -3.597656 14.085938 -2.5 14.433594 -1.402344 C 14.65625 -0.613281 15.179688 -0.175781 15.972656 -0.175781 Z M 7.414062 -8.378906 C 8.074219 -9.871094 8.949219 -11.933594 10.222656 -14.433594 C 10.53125 -15.003906 10.925781 -15.179688 11.101562 -14.832031 C 11.890625 -12.945312 12.375 -10.792969 12.8125 -8.90625 C 12.855469 -8.644531 12.722656 -8.425781 12.460938 -8.378906 C 10.882812 -8.160156 9.347656 -7.898438 7.765625 -7.855469 C 7.414062 -7.855469 7.285156 -8.074219 7.414062 -8.378906 Z M 7.414062 -8.378906 "/></g></g></g><g fill="#ffffff" fill-opacity="1"><g transform="translate(140.646655, 279.264739)"><g><path d="M 6.625 -0.570312 C 7.019531 -0.570312 7.460938 -0.65625 7.855469 -0.746094 C 9.871094 -1.359375 11.757812 -2.148438 13.46875 -3.160156 C 16.628906 -5.046875 18.382812 -7.546875 18.339844 -10.707031 C 18.339844 -13.46875 16.628906 -15.488281 13.820312 -16.628906 C 11.628906 -17.464844 9.300781 -17.769531 6.886719 -17.769531 C 6.1875 -17.769531 5.527344 -17.726562 4.828125 -17.683594 C 3.992188 -17.683594 3.378906 -17.242188 3.378906 -16.542969 C 3.378906 -15.3125 3.6875 -14.917969 3.949219 -12.503906 C 4.125 -11.011719 4.257812 -9.519531 4.257812 -8.03125 L 4.210938 -4.957031 C 4.210938 -4.605469 4.429688 -2.894531 4.429688 -2.71875 C 4.5625 -1.316406 5.351562 -0.570312 6.625 -0.570312 Z M 7.371094 -3.949219 C 7.371094 -4.5625 7.371094 -5.222656 7.371094 -5.878906 C 7.285156 -8.863281 7.238281 -11.847656 6.800781 -14.742188 C 6.757812 -15.050781 6.886719 -15.226562 7.195312 -15.226562 C 9.476562 -15.269531 11.40625 -14.875 13.03125 -14.039062 C 14.523438 -13.339844 15.179688 -12.375 15.179688 -10.835938 C 15.179688 -8.554688 13.996094 -6.625 11.847656 -5.351562 C 10.574219 -4.605469 9.347656 -3.992188 7.898438 -3.597656 C 7.589844 -3.511719 7.414062 -3.640625 7.371094 -3.949219 Z M 7.371094 -3.949219 "/></g></g></g><g fill="#ffffff" fill-opacity="1"><g transform="translate(160.910247, 279.264739)"><g><path d="M 10.75 0.703125 C 17.636719 0.394531 19.523438 -3.511719 20.007812 -8.335938 C 20.664062 -14.480469 17.769531 -18.339844 12.328125 -18.605469 C 10.441406 -18.691406 9.257812 -18.777344 7.941406 -18.035156 C 4.78125 -16.453125 2.71875 -12.636719 2.71875 -8.335938 C 2.71875 -2.941406 5.921875 0.703125 10.75 0.703125 Z M 10.882812 -2.019531 C 7.765625 -2.019531 6.011719 -4.429688 6.011719 -8.203125 C 6.011719 -11.976562 7.898438 -15.972656 11.628906 -15.972656 C 14.960938 -15.972656 16.804688 -13.734375 16.804688 -9.519531 C 16.804688 -4.429688 15.269531 -2.195312 10.882812 -2.019531 Z M 10.882812 -2.019531 "/></g></g></g><g fill="#ffffff" fill-opacity="1"><g transform="translate(183.805489, 279.264739)"><g><path d="M 11.496094 0.261719 C 14.214844 0.351562 17.988281 -1.84375 17.988281 -3.640625 C 17.988281 -4.386719 17.332031 -4.914062 16.496094 -4.914062 C 15.839844 -4.914062 15.53125 -4.652344 15.226562 -4.257812 C 15.09375 -4.125 14.875 -3.90625 14.523438 -3.597656 C 13.601562 -2.71875 12.503906 -2.324219 11.234375 -2.324219 C 8.117188 -2.324219 6.1875 -4.429688 6.1875 -7.941406 C 6.363281 -11.890625 8.996094 -14.785156 12.417969 -14.785156 C 12.988281 -14.785156 13.339844 -14.699219 13.644531 -14.523438 C 13.996094 -14.304688 14.171875 -14.128906 14.523438 -13.953125 C 14.785156 -13.820312 15.09375 -13.691406 15.53125 -13.691406 C 16.277344 -13.691406 17.066406 -14.304688 17.066406 -14.960938 C 17.066406 -16.148438 14.261719 -17.59375 12.242188 -17.550781 C 7.109375 -17.417969 3.027344 -13.164062 3.027344 -7.984375 C 3.027344 -2.941406 6.097656 0.0429688 11.496094 0.261719 Z M 11.496094 0.261719 "/></g></g></g><g fill="#ffffff" fill-opacity="1"><g transform="translate(204.376119, 279.264739)"><g><path d="M 15.972656 -0.175781 C 16.9375 -0.175781 17.550781 -0.703125 17.550781 -1.625 C 17.550781 -2.0625 17.464844 -2.542969 17.332031 -3.117188 C 16.628906 -5.574219 15.488281 -11.363281 14.304688 -14.960938 C 13.601562 -16.671875 12.546875 -18.734375 11.058594 -18.734375 C 10.046875 -18.734375 8.863281 -17.507812 7.546875 -15.09375 C 6.625 -13.339844 4.429688 -8.90625 2.238281 -3.6875 C 1.402344 -1.625 1.140625 -0.351562 2.765625 -0.351562 C 3.597656 -0.351562 4.167969 -0.703125 4.5625 -1.578125 C 4.957031 -2.371094 5.441406 -3.511719 6.054688 -4.828125 C 6.1875 -5.046875 6.363281 -5.132812 6.582031 -5.132812 C 8.730469 -5.089844 10.835938 -5.351562 12.945312 -5.703125 C 13.207031 -5.746094 13.382812 -5.617188 13.425781 -5.351562 L 13.601562 -4.695312 C 13.863281 -3.597656 14.085938 -2.5 14.433594 -1.402344 C 14.65625 -0.613281 15.179688 -0.175781 15.972656 -0.175781 Z M 7.414062 -8.378906 C 8.074219 -9.871094 8.949219 -11.933594 10.222656 -14.433594 C 10.53125 -15.003906 10.925781 -15.179688 11.101562 -14.832031 C 11.890625 -12.945312 12.375 -10.792969 12.8125 -8.90625 C 12.855469 -8.644531 12.722656 -8.425781 12.460938 -8.378906 C 10.882812 -8.160156 9.347656 -7.898438 7.765625 -7.855469 C 7.414062 -7.855469 7.285156 -8.074219 7.414062 -8.378906 Z M 7.414062 -8.378906 "/></g></g></g><g fill="#ffffff" fill-opacity="1"><g transform="translate(223.499348, 279.264739)"><g><path d="M 9.257812 0.878906 C 10.089844 0.878906 10.707031 0.4375 10.792969 -0.21875 C 10.835938 -0.527344 10.882812 -0.703125 10.882812 -0.921875 C 10.882812 -0.964844 10.882812 -1.007812 10.882812 -1.054688 C 10.882812 -1.140625 10.835938 -1.230469 10.835938 -1.359375 C 10.835938 -4.167969 10.398438 -10.046875 10.398438 -12.8125 L 10.398438 -14.960938 C 10.398438 -15.226562 10.53125 -15.355469 10.792969 -15.402344 C 12.375 -15.664062 13.953125 -15.925781 15.53125 -16.191406 C 16.277344 -16.320312 16.761719 -16.761719 16.761719 -17.417969 C 16.761719 -18.429688 16.058594 -18.777344 14.875 -18.691406 C 13.734375 -18.605469 10.441406 -18.121094 9.742188 -18.035156 L 7.765625 -17.769531 L 3.949219 -17.375 C 3.464844 -17.332031 2.894531 -17.242188 2.457031 -17.023438 C 1.886719 -16.71875 1.578125 -16.234375 1.578125 -15.75 C 1.578125 -15.621094 1.625 -15.445312 1.710938 -15.3125 C 1.972656 -14.742188 2.5 -14.433594 3.289062 -14.433594 C 3.464844 -14.433594 4.082031 -14.523438 6.714844 -14.832031 C 7.019531 -14.875 7.195312 -14.65625 7.195312 -14.390625 L 7.195312 -13.207031 C 7.195312 -11.496094 7.285156 -8.820312 7.414062 -6.316406 C 7.546875 -4.167969 7.679688 -2.0625 7.679688 -0.613281 C 7.679688 -0.484375 7.679688 -0.394531 7.722656 -0.261719 C 7.898438 0.4375 8.46875 0.878906 9.257812 0.878906 Z M 9.257812 0.878906 "/></g></g></g><g fill="#000000" fill-opacity="1"><g transform="translate(114.507098, 119.959468)"><g><path d="M -3.90625 -12.03125 L -1.40625 -6.75 L 1.125 -9.9375 Z M 2.484375 -9.375 L -0.75 -5.328125 L 1.078125 -1.546875 C 0.847656 -1.128906 0.648438 -0.832031 0.484375 -0.65625 C 0.347656 -0.507812 0.195312 -0.4375 0.03125 -0.4375 L -5.359375 -11.609375 C -4.929688 -12.429688 -4.601562 -12.96875 -4.375 -13.21875 C -4.207031 -13.394531 -4.019531 -13.5 -3.8125 -13.53125 L 7.65625 -8.640625 C 7.4375 -8.210938 7.222656 -7.890625 7.015625 -7.671875 C 6.859375 -7.492188 6.738281 -7.441406 6.65625 -7.515625 L 6.640625 -7.53125 Z M 2.484375 -9.375 "/></g></g></g><g fill="#000000" fill-opacity="1"><g transform="translate(122.084819, 111.671179)"><g><path d="M 3.25 -10.71875 C 2.039062 -12.125 0.859375 -12.753906 -0.296875 -12.609375 C -1.453125 -12.472656 -2.363281 -12.132812 -3.03125 -11.59375 L -5 -9.921875 L 1.1875 -2.671875 L 3.140625 -4.328125 C 4.160156 -5.203125 4.632812 -6.242188 4.5625 -7.453125 C 4.488281 -8.671875 4.050781 -9.757812 3.25 -10.71875 Z M 4.296875 -11.609375 C 5.429688 -10.265625 6.003906 -8.867188 6.015625 -7.421875 C 6.023438 -5.984375 5.316406 -4.65625 3.890625 -3.4375 L 1 -0.984375 L -6.703125 -10.03125 L -3.8125 -12.484375 C -2.5 -13.597656 -1.117188 -14.078125 0.328125 -13.921875 C 1.773438 -13.773438 3.097656 -13.003906 4.296875 -11.609375 Z M 4.296875 -11.609375 "/></g></g></g><g fill="#000000" fill-opacity="1"><g transform="translate(130.469494, 104.466911)"><g><path d="M 4.859375 -10.421875 C 4.210938 -11.398438 3.40625 -12.128906 2.4375 -12.609375 C 1.476562 -13.097656 0.359375 -12.921875 -0.921875 -12.078125 C -2.253906 -11.203125 -2.890625 -10.289062 -2.828125 -9.34375 C -2.765625 -8.40625 -2.347656 -7.351562 -1.578125 -6.1875 C -0.753906 -4.9375 0.101562 -4.117188 1 -3.734375 C 1.894531 -3.347656 2.953125 -3.550781 4.171875 -4.34375 C 5.535156 -5.25 6.1875 -6.1875 6.125 -7.15625 C 6.070312 -8.125 5.648438 -9.210938 4.859375 -10.421875 Z M -2.796875 -5.5625 C -3.703125 -6.925781 -4.097656 -8.320312 -3.984375 -9.75 C -3.867188 -11.1875 -3.085938 -12.378906 -1.640625 -13.328125 C -0.253906 -14.234375 1.132812 -14.453125 2.53125 -13.984375 C 3.9375 -13.523438 5.078125 -12.632812 5.953125 -11.3125 C 6.992188 -9.71875 7.5 -8.238281 7.46875 -6.875 C 7.4375 -5.519531 6.609375 -4.3125 4.984375 -3.25 C 3.503906 -2.269531 2.082031 -2.03125 0.71875 -2.53125 C -0.632812 -3.039062 -1.804688 -4.050781 -2.796875 -5.5625 Z M -2.796875 -5.5625 "/></g></g></g><g fill="#000000" fill-opacity="1"><g transform="translate(140.094014, 98.175763)"><g><path d="M -0.59375 -7.0625 L 1.921875 -8.578125 C 2.785156 -9.066406 3.269531 -9.566406 3.375 -10.078125 C 3.476562 -10.585938 3.398438 -11.097656 3.140625 -11.609375 C 2.898438 -12.085938 2.488281 -12.367188 1.90625 -12.453125 C 1.332031 -12.535156 0.566406 -12.34375 -0.390625 -11.875 L -2.484375 -10.796875 Z M -4.15625 -11.328125 L -1.21875 -12.8125 C 0.25 -13.507812 1.4375 -13.796875 2.34375 -13.671875 C 3.25 -13.554688 3.898438 -13.101562 4.296875 -12.3125 C 4.671875 -11.570312 4.796875 -10.78125 4.671875 -9.9375 C 4.546875 -9.101562 4.039062 -8.441406 3.15625 -7.953125 L -0.0625 -6 L 2.296875 -1.3125 C 2.015625 -1.070312 1.78125 -0.90625 1.59375 -0.8125 C 1.40625 -0.71875 1.234375 -0.765625 1.078125 -0.953125 Z M -4.15625 -11.328125 "/></g></g></g><g fill="#000000" fill-opacity="1"><g transform="translate(148.438197, 93.902971)"><g><path d="M -3.53125 -11.421875 L 5.640625 -14.84375 C 6.003906 -14.550781 6.234375 -14.285156 6.328125 -14.046875 C 6.398438 -13.847656 6.332031 -13.707031 6.125 -13.625 L 2.078125 -12.125 L 5.71875 -2.359375 C 5.507812 -2.160156 5.296875 -2.019531 5.078125 -1.9375 C 4.847656 -1.84375 4.679688 -1.835938 4.578125 -1.921875 L 0.9375 -11.6875 L -3.109375 -10.1875 C -3.472656 -10.375 -3.707031 -10.585938 -3.8125 -10.828125 C -3.863281 -10.992188 -3.769531 -11.191406 -3.53125 -11.421875 Z M -3.53125 -11.421875 "/></g></g></g><g fill="#000000" fill-opacity="1"><g transform="translate(158.220617, 90.182988)"><g><path d="M 3.453125 -12.171875 L 2.578125 -6.40625 L 6.453125 -7.625 Z M 7.28125 -6.421875 L 2.34375 -4.84375 L 1.765625 -0.6875 C 1.335938 -0.476562 1.003906 -0.34375 0.765625 -0.28125 C 0.566406 -0.238281 0.398438 -0.257812 0.265625 -0.34375 L 2 -12.625 C 2.8125 -13.070312 3.378906 -13.332031 3.703125 -13.40625 C 3.941406 -13.46875 4.160156 -13.457031 4.359375 -13.375 L 11.171875 -2.921875 C 10.742188 -2.703125 10.382812 -2.554688 10.09375 -2.484375 C 9.875 -2.429688 9.75 -2.457031 9.71875 -2.5625 L 9.71875 -2.578125 Z M 7.28125 -6.421875 "/></g></g></g><g fill="#000000" fill-opacity="1"><g transform="translate(169.312709, 87.614112)"><g><path d="M 4.03125 -2.328125 L 3 1.234375 C 2.507812 1.722656 2.113281 1.988281 1.8125 2.03125 C 1.632812 2.050781 1.503906 1.941406 1.421875 1.703125 L 2.5 -2.046875 C 3 -2.378906 3.367188 -2.566406 3.609375 -2.609375 C 3.785156 -2.640625 3.925781 -2.546875 4.03125 -2.328125 Z M 4.03125 -2.328125 "/></g></g></g><g fill="#000000" fill-opacity="1"><g transform="translate(174.542851, 86.827166)"><g/></g></g><g fill="#000000" fill-opacity="1"><g transform="translate(179.75745, 86.235676)"><g><path d="M 10.1875 -2.296875 C 10.15625 -1.910156 9.765625 -1.445312 9.015625 -0.90625 C 8.265625 -0.363281 7.316406 -0.0859375 6.171875 -0.078125 C 4.367188 -0.0859375 3 -0.625 2.0625 -1.6875 C 1.132812 -2.75 0.671875 -4.203125 0.671875 -6.046875 C 0.660156 -7.710938 1.164062 -9.140625 2.1875 -10.328125 C 3.21875 -11.523438 4.539062 -12.125 6.15625 -12.125 C 7.300781 -12.132812 8.519531 -11.660156 9.8125 -10.703125 C 9.9375 -10.578125 10.046875 -10.445312 10.140625 -10.3125 C 9.910156 -9.75 9.6875 -9.46875 9.46875 -9.46875 C 9.300781 -9.46875 9.144531 -9.519531 9 -9.625 C 7.988281 -10.300781 7.039062 -10.632812 6.15625 -10.625 L 6.140625 -10.625 C 4.878906 -10.625 3.863281 -10.207031 3.09375 -9.375 C 2.320312 -8.550781 1.941406 -7.441406 1.953125 -6.046875 C 1.953125 -4.441406 2.351562 -3.257812 3.15625 -2.5 C 3.96875 -1.738281 4.972656 -1.359375 6.171875 -1.359375 C 7.234375 -1.367188 7.953125 -1.570312 8.328125 -1.96875 C 8.703125 -2.375 8.953125 -2.660156 9.078125 -2.828125 C 9.796875 -2.804688 10.164062 -2.628906 10.1875 -2.296875 Z M 10.1875 -2.296875 "/></g></g></g><g fill="#000000" fill-opacity="1"><g transform="translate(189.891983, 86.125835)"><g><path d="M 10.421875 -4.875 C 10.554688 -6.039062 10.410156 -7.117188 9.984375 -8.109375 C 9.554688 -9.097656 8.578125 -9.679688 7.046875 -9.859375 C 5.472656 -10.035156 4.40625 -9.742188 3.84375 -8.984375 C 3.28125 -8.222656 2.921875 -7.148438 2.765625 -5.765625 C 2.585938 -4.273438 2.71875 -3.09375 3.15625 -2.21875 C 3.59375 -1.34375 4.535156 -0.820312 5.984375 -0.65625 C 7.609375 -0.46875 8.710938 -0.765625 9.296875 -1.546875 C 9.878906 -2.328125 10.253906 -3.4375 10.421875 -4.875 Z M 1.421875 -6.0625 C 1.609375 -7.6875 2.203125 -9.007812 3.203125 -10.03125 C 4.210938 -11.0625 5.570312 -11.476562 7.28125 -11.28125 C 8.9375 -11.09375 10.148438 -10.363281 10.921875 -9.09375 C 11.703125 -7.832031 12.003906 -6.414062 11.828125 -4.84375 C 11.609375 -2.957031 11.046875 -1.503906 10.140625 -0.484375 C 9.242188 0.523438 7.828125 0.921875 5.890625 0.703125 C 4.140625 0.492188 2.90625 -0.238281 2.1875 -1.5 C 1.46875 -2.757812 1.210938 -4.28125 1.421875 -6.0625 Z M 1.421875 -6.0625 "/></g></g></g><g fill="#000000" fill-opacity="1"><g transform="translate(201.260245, 87.390557)"><g><path d="M 1.359375 -0.046875 L 4.75 -11.234375 C 5 -11.335938 5.160156 -11.378906 5.234375 -11.359375 C 5.453125 -11.304688 5.644531 -11.171875 5.8125 -10.953125 L 10.046875 -0.0625 L 12.34375 -9.328125 C 12.8125 -9.390625 13.113281 -9.40625 13.25 -9.375 C 13.4375 -9.3125 13.550781 -9.1875 13.59375 -9 L 10.734375 2.53125 C 10.492188 2.550781 10.25 2.53125 10 2.46875 C 9.84375 2.425781 9.722656 2.359375 9.640625 2.265625 L 5.34375 -8.8125 L 2.515625 0.453125 C 2.128906 0.460938 1.828125 0.441406 1.609375 0.390625 C 1.421875 0.335938 1.335938 0.191406 1.359375 -0.046875 Z M 1.359375 -0.046875 "/></g></g></g><g fill="#000000" fill-opacity="1"><g transform="translate(212.808356, 90.393438)"><g/></g></g><g fill="#000000" fill-opacity="1"><g transform="translate(217.786777, 91.966523)"><g><path d="M 10.234375 -7.4375 L 5.984375 -3.4375 L 9.796875 -2 Z M 9.671875 -0.546875 L 4.84375 -2.359375 L 1.8125 0.546875 C 1.332031 0.453125 0.976562 0.351562 0.75 0.25 C 0.570312 0.164062 0.460938 0.046875 0.421875 -0.109375 L 9.390625 -8.6875 C 10.296875 -8.53125 10.898438 -8.382812 11.203125 -8.25 C 11.429688 -8.144531 11.59375 -8 11.6875 -7.8125 L 10.578125 4.609375 C 10.109375 4.515625 9.738281 4.40625 9.46875 4.28125 C 9.257812 4.1875 9.175781 4.09375 9.21875 4 L 9.21875 3.984375 Z M 9.671875 -0.546875 "/></g></g></g><g fill="#000000" fill-opacity="1"><g transform="translate(227.999564, 96.436213)"><g><path d="M 1.296875 0.390625 L 8.125 -9.09375 C 8.519531 -9.03125 8.859375 -8.910156 9.140625 -8.734375 C 9.328125 -8.609375 9.453125 -8.425781 9.515625 -8.1875 L 7.453125 2.625 L 16.4375 -3.75 C 16.882812 -3.664062 17.207031 -3.554688 17.40625 -3.421875 C 17.644531 -3.265625 17.722656 -3.03125 17.640625 -2.71875 L 11.875 7.4375 C 11.488281 7.289062 11.21875 7.164062 11.0625 7.0625 C 10.851562 6.925781 10.753906 6.742188 10.765625 6.515625 L 15.609375 -1.75 L 7.203125 4.28125 C 6.960938 4.332031 6.710938 4.273438 6.453125 4.109375 C 6.203125 3.953125 6.046875 3.75 5.984375 3.5 L 7.9375 -6.609375 L 2.234375 1.1875 C 1.898438 1.125 1.625 1.019531 1.40625 0.875 C 1.25 0.78125 1.210938 0.617188 1.296875 0.390625 Z M 1.296875 0.390625 "/></g></g></g><g fill="#000000" fill-opacity="1"><g transform="translate(240.307007, 104.404009)"><g><path d="M 11.34375 1.828125 C 12.101562 0.953125 12.585938 -0.015625 12.796875 -1.078125 C 13.015625 -2.148438 12.539062 -3.1875 11.375 -4.1875 C 10.175781 -5.226562 9.128906 -5.585938 8.234375 -5.265625 C 7.335938 -4.941406 6.4375 -4.257812 5.53125 -3.21875 C 4.550781 -2.082031 3.992188 -1.03125 3.859375 -0.0625 C 3.722656 0.90625 4.207031 1.867188 5.3125 2.828125 C 6.550781 3.898438 7.628906 4.273438 8.546875 3.953125 C 9.460938 3.628906 10.394531 2.921875 11.34375 1.828125 Z M 4.578125 -4.234375 C 5.648438 -5.460938 6.890625 -6.21875 8.296875 -6.5 C 9.703125 -6.78125 11.054688 -6.351562 12.359375 -5.21875 C 13.617188 -4.132812 14.21875 -2.851562 14.15625 -1.375 C 14.09375 0.101562 13.546875 1.4375 12.515625 2.625 C 11.265625 4.070312 9.976562 4.960938 8.65625 5.296875 C 7.34375 5.640625 5.945312 5.175781 4.46875 3.90625 C 3.132812 2.738281 2.523438 1.429688 2.640625 -0.015625 C 2.753906 -1.460938 3.398438 -2.867188 4.578125 -4.234375 Z M 4.578125 -4.234375 "/></g></g></g><g fill="#000000" fill-opacity="1"><g transform="translate(248.987283, 111.909236)"><g><path d="M 6.609375 -2.4375 L 9.03125 -0.125 C 9.664062 0.414062 10.222656 0.695312 10.703125 0.71875 C 11.179688 0.738281 11.640625 0.550781 12.078125 0.15625 C 12.722656 -0.4375 12.929688 -1.003906 12.703125 -1.546875 C 12.484375 -2.097656 12.03125 -2.753906 11.34375 -3.515625 L 9.734375 -5.28125 Z M 5.875 6.1875 L 7.40625 -0.015625 L 5.75 -1.65625 L 1.9375 1.8125 C 1.550781 1.625 1.300781 1.460938 1.1875 1.328125 C 1.0625 1.203125 1.0625 1.03125 1.1875 0.8125 L 9.796875 -7.03125 L 12.40625 -4.15625 C 13.257812 -3.207031 13.742188 -2.253906 13.859375 -1.296875 C 13.972656 -0.347656 13.664062 0.453125 12.9375 1.109375 C 12.445312 1.554688 11.785156 1.832031 10.953125 1.9375 C 10.128906 2.050781 9.351562 1.789062 8.625 1.15625 L 7 7.453125 C 6.632812 7.234375 6.351562 7.015625 6.15625 6.796875 C 6.019531 6.640625 5.925781 6.4375 5.875 6.1875 Z M 5.875 6.1875 "/></g></g></g></svg>